# xmcd
# 
# Track frame offsets:
#     150
#     18455
#     41163
# 
# Disc length: 647
# 
# Revision: 2
# Processed by: cddbd v1.5.2PL0 Copyright (c) Steve Scherf et al.
# Submitted via: fre:ac v1.0.17
# 
DISCID=1f028503
DTITLE=ポルノグラフィティ - Na Na Na サマーガール
DYEAR=2005
DGENRE=Pop
TTITLE0=Na Na Na サマーガール
TTITLE1=PRISON MANSION
TTITLE2=稲妻サンダー99
EXTD=YEAR: 2005
EXTT0=
EXTT1=
EXTT2=
PLAYORDER=
